<svg xmlns:xlink="http://www.w3.org/1999/xlink" width="11" height="138" viewBox="-1 -1 11 138" fill="none" xmlns="http://www.w3.org/2000/svg" id="svg1391688547_766">
<path fill-rule="evenodd" clip-rule="evenodd" d="M4.5 136L5 132V9.5C5 8.64999 4.31537 8.06563 3.63347 7.89203C2.11932 7.50656 1 6.13336 1 4.5C1 2.567 2.567 1 4.5 1C6.433 1 8 2.567 8 4.5C8 5.43422 7.63464 6.28203 7.038 6.91011L7.76301 7.59883C8.52914 6.79236 9 5.70064 9 4.5C9 2.01472 6.98528 0 4.5 0C2.01472 0 0 2.01472 0 4.5C0 6.60159 1.4402 8.36556 3.38676 8.86111C3.77529 8.96003 4 9.24544 4 9.5V132L4.5 136Z" fill="url(&quot;#svg1391688547_766_paint0_linear_64_1676&quot;)"></path>
<defs>
<linearGradient id="svg1391688547_766_paint0_linear_64_1676" x1="4.5" y1="136" x2="4.5" y2="0" gradientUnits="userSpaceOnUse">
<stop stop-color="white"></stop>
<stop offset="1" stop-color="#ECEDEF"></stop>
</linearGradient>
<linearGradient id="svg1391688547_766_paint0_linear_64_1676" x1="4.5" y1="136" x2="4.5" y2="0" gradientUnits="userSpaceOnUse">
<stop stop-color="white"></stop>
<stop offset="1" stop-color="#ECEDEF"></stop>
</linearGradient></defs>
</svg>